<svg xmlns="http://www.w3.org/2000/svg" width="430" height="430" style="width:100%;height:100%;transform:translate3d(0,0,0);content-visibility:visible" viewBox="0 0 430 430"><defs><clipPath id="c"><path d="M0 0h430v430H0z"/></clipPath><clipPath id="d"><path d="M0 0h430v430H0z"/></clipPath><clipPath id="b"><path d="M0 0h430v430H0z"/></clipPath><filter id="f" width="300%" height="300%" x="-100%" y="-100%"><feGaussianBlur result="filter_result_0" stdDeviation="52.5 52.5"/></filter><mask id="e" mask-type="alpha"><use xmlns:ns1="http://www.w3.org/1999/xlink" ns1:href="#a"/></mask><g id="a" fill-opacity="0" stroke-linecap="round" stroke-linejoin="round" clip-path="url(#b)" style="display:block"><g stroke-width="12" style="display:block"><path stroke="#08A88A" d="M177.188 161.627 192.5 375.121m-79.36-221.9c-9.36-4.03-15.9-13.32-15.9-24.14 0-14.5 11.76-26.27 26.27-26.27 1.43 0 2.84.12 4.21.34-.12-.86-.17-1.76-.17-2.66 0-9.61 6.34-17.74 15.08-20.43-.1-.64-.15-1.3-.15-1.97 0-7.68 6.22-13.91 13.91-13.91 6.47 0 11.91 4.42 13.46 10.41 3.55-2.96 8.1-4.74 13.06-4.74 1.59 0 3.14.18 4.62.53-.04-.4-.06-.81-.06-1.22 0-6.78 5.49-12.28 12.27-12.28 6.22 0 11.35 4.63 12.16 10.62 2.04-5.54 7.37-9.5 13.61-9.5 5.7 0 10.64 3.29 13.01 8.08a19.8 19.8 0 0 1 10.06-2.72c10.88 0 19.72 8.69 19.97 19.51 2.14-1.71 4.86-2.72 7.81-2.72 6.27 0 11.47 4.56 12.45 10.56 3.01-1.8 6.52-2.83 10.28-2.83 11.09 0 20.08 8.99 20.08 20.08 0 6.18-2.79 11.7-7.16 15.39 7.8 1.09 13.82 7.8 13.82 15.92 0 6.16-3.47 11.52-8.56 14.21m-64.471 8.146-15.312 213.494m19.41-253.94c0-7.848-6.362-14.21-14.21-14.21-7.848 0-14.21 6.362-14.21 14.21" class="secondary"/><path stroke="#121331" d="M328.418 161.627 295.06 375.12H134.94l-33.358-213.493m0 0 9.666-7.097c16.744-12.295 39.526-12.296 56.271-.002l9.669 7.099 9.672-7.101c16.744-12.293 39.523-12.293 56.267-.001l9.673 7.102 9.675-7.102c16.743-12.292 39.521-12.293 56.265-.002l9.678 7.104" class="primary"/></g><path class="secondary" style="display:none"/><path class="secondary" style="display:none"/></g></defs><g clip-path="url(#c)"><g clip-path="url(#d)" mask="url(#e)" style="display:block"><g filter="url(#f)" transform="rotate(-94 238.762 -16.565) scale(2.4)"><g class="design"><path fill="#4BE1EC" d="M0-250c137.975 0 250 112.025 250 250S137.975 250 0 250-250 137.975-250 0-137.975-250 0-250z" class="primary"/></g><g class="design"><path fill="#CB5EEE" d="M113.242-295.384c97.478 0 176.5 79.022 176.5 176.5s-79.022 176.5-176.5 176.5c-43.948 0-74.396-34.057-105.29-60.631-37.631-32.369-71.21-62.338-71.21-115.869 0-97.478 79.022-176.5 176.5-176.5z" class="secondary"/></g></g></g></g></svg>